2.5Hzhigh3min_grf.mot
version=1
nRows=12
nColumns 19
inDegrees=yes
endheader
time	1_ground_force_vx	1_ground_force_vy	1_ground_force_vz	1_ground_force_px	1_ground_force_py	1_ground_force_pz	1_ground_torque_x	1_ground_torque_y	1_ground_torque_z	2_ground_force_vx	2_ground_force_vy	2_ground_force_vz	2_ground_force_px	2_ground_force_py	2_ground_force_pz	2_ground_torque_x	2_ground_torque_y	2_ground_torque_z
            3.751500	            0.092346	            3.242637	            0.518101	           -0.233013	            0.005581	           -0.255695	            0.126428	           -0.119757	           -0.072226	            0.697575	            1.474552	            0.333454	           -0.232311	            0.006130	           -0.833667	           -0.206237	           -0.123295	           -0.094602
            3.752000	            0.275556	            2.882534	            0.424388	           -0.233013	            0.005581	           -0.255695	            0.055650	           -0.166148	           -0.008023	            0.611954	           -0.736403	            0.560250	           -0.232311	            0.006130	           -0.833667	           -0.225012	           -0.141798	           -0.226613
            3.752500	            0.230007	            2.521601	            0.514668	           -0.233013	            0.005581	           -0.255695	            0.070597	           -0.156678	           -0.066356	            0.610542	           -0.367437	            0.373852	           -0.232311	            0.006130	           -0.833667	           -0.112231	           -0.160296	           -0.226728
            3.753000	            0.412435	            2.703475	            0.148138	           -0.233013	            0.005581	           -0.255695	            0.123941	           -0.018429	            0.054706	            0.703598	           -0.183117	            0.421397	           -0.232311	            0.006130	           -0.833667	           -0.206423	           -0.085081	           -0.207568
            3.753500	            0.137799	            2.882901	            0.333017	           -0.233013	            0.005581	           -0.255695	            0.097051	            0.046391	           -0.013079	            0.607260	            0.552970	            0.470993	           -0.232311	            0.006130	           -0.833667	           -0.244078	           -0.066177	           -0.245185
            3.754000	           -0.045800	            2.883259	            0.241761	           -0.233013	            0.005581	           -0.255695	            0.044543	           -0.009005	           -0.058601	            0.654090	            0.553307	            0.424045	           -0.232311	            0.006130	           -0.833667	           -0.206507	           -0.066041	           -0.245201
            3.754500	            0.504396	            3.063434	            0.287024	           -0.233013	            0.005581	           -0.255695	            0.136494	           -0.064355	            0.001980	            0.466690	            0.552630	            0.424125	           -0.232311	            0.006130	           -0.833667	           -0.224987	           -0.141999	           -0.170062
            3.755000	            0.276029	            2.160882	            0.558864	           -0.233013	            0.005581	           -0.255695	            0.087965	           -0.092512	            0.067431	            0.794598	            0.554149	            0.330129	           -0.232311	            0.006130	           -0.833667	           -0.299846	           -0.227143	           -0.226884
            3.755500	            0.138240	            2.341514	            0.468266	           -0.233013	            0.005581	           -0.255695	            0.110292	           -0.138389	           -0.032683	            0.609295	            0.000191	            0.562878	           -0.232311	            0.006130	           -0.833667	           -0.243873	           -0.122893	           -0.245387
            3.756000	            0.322262	            2.520636	            0.743720	           -0.233013	            0.005581	           -0.255695	            0.173732	           -0.101631	            0.050322	            0.516178	           -0.183627	            0.374549	           -0.232311	            0.006130	           -0.833667	           -0.206200	           -0.151115	           -0.245504
            3.756500	            0.092040	            1.801495	            0.282638	           -0.233013	            0.005581	           -0.255695	            0.155795	           -0.036408	           -0.109486	            0.611248	           -0.551920	            0.467051	           -0.232311	            0.006130	           -0.833667	           -0.225249	           -0.084813	           -0.301811
            3.757000	            0.046635	            2.521566	            0.515123	           -0.233013	            0.005581	           -0.255695	            0.164687	            0.009153	            0.039092	            0.609960	           -0.183958	            0.562221	           -0.232311	            0.006130	           -0.833667	           -0.244029	           -0.066580	           -0.132084
